<mxfile host="Electron" modified="2023-11-23T21:55:27.857Z" agent="Mozilla/5.0 (Windows NT 10.0; Win64; x64) AppleWebKit/537.36 (KHTML, like Gecko) draw.io/22.0.3 Chrome/114.0.5735.289 Electron/25.8.4 Safari/537.36" etag="2Qy6wIGiCpUOka9CoNIA" version="22.0.3" type="device">
  <diagram name="Страница — 1" id="GY_XCtF4ge_KFnOXVx9y">
    <mxGraphModel dx="1818" dy="428" grid="0" gridSize="10" guides="1" tooltips="1" connect="1" arrows="1" fold="1" page="0" pageScale="1" pageWidth="827" pageHeight="1169" math="0" shadow="0">
      <root>
        <mxCell id="0" />
        <mxCell id="1" parent="0" />
        <mxCell id="rUVFYFhkyGE7k6Fw-lOJ-115" value="&lt;b&gt;Модель предметной области&lt;/b&gt;" style="shape=umlFrame;whiteSpace=wrap;html=1;pointerEvents=0;recursiveResize=0;container=1;collapsible=0;width=205;height=27;" parent="1" vertex="1">
          <mxGeometry x="-260" y="636" width="1015" height="768" as="geometry" />
        </mxCell>
        <mxCell id="rUVFYFhkyGE7k6Fw-lOJ-118" value="" style="triangle;aspect=fixed;fillColor=strokeColor;rotation=-90;" parent="rUVFYFhkyGE7k6Fw-lOJ-115" vertex="1">
          <mxGeometry x="169" y="300" width="6" height="12" as="geometry" />
        </mxCell>
        <mxCell id="rUVFYFhkyGE7k6Fw-lOJ-121" value="" style="triangle;aspect=fixed;fillColor=strokeColor;rotation=0;" parent="rUVFYFhkyGE7k6Fw-lOJ-115" vertex="1">
          <mxGeometry x="336" y="365" width="6" height="12" as="geometry" />
        </mxCell>
        <mxCell id="rUVFYFhkyGE7k6Fw-lOJ-39" value="&lt;b&gt;Отклик&lt;/b&gt;" style="swimlane;fontStyle=0;childLayout=stackLayout;horizontal=1;startSize=26;fillColor=#ffe6cc;horizontalStack=0;resizeParent=1;resizeParentMax=0;resizeLast=0;collapsible=1;marginBottom=0;whiteSpace=wrap;html=1;strokeColor=#d79b00;" parent="rUVFYFhkyGE7k6Fw-lOJ-115" vertex="1">
          <mxGeometry x="480" y="396" width="128" height="52" as="geometry" />
        </mxCell>
        <mxCell id="rUVFYFhkyGE7k6Fw-lOJ-40" value="Дата создания" style="text;strokeColor=none;fillColor=none;align=left;verticalAlign=top;spacingLeft=4;spacingRight=4;overflow=hidden;rotatable=0;points=[[0,0.5],[1,0.5]];portConstraint=eastwest;whiteSpace=wrap;html=1;" parent="rUVFYFhkyGE7k6Fw-lOJ-39" vertex="1">
          <mxGeometry y="26" width="128" height="26" as="geometry" />
        </mxCell>
        <mxCell id="rUVFYFhkyGE7k6Fw-lOJ-130" value="" style="triangle;aspect=fixed;fillColor=strokeColor;rotation=0;" parent="rUVFYFhkyGE7k6Fw-lOJ-115" vertex="1">
          <mxGeometry x="408" y="419" width="6" height="12" as="geometry" />
        </mxCell>
        <mxCell id="rUVFYFhkyGE7k6Fw-lOJ-88" value="" style="triangle;aspect=fixed;fillColor=strokeColor;rotation=0;" parent="rUVFYFhkyGE7k6Fw-lOJ-115" vertex="1">
          <mxGeometry x="894" y="511" width="6" height="12" as="geometry" />
        </mxCell>
        <mxCell id="rUVFYFhkyGE7k6Fw-lOJ-134" value="" style="triangle;aspect=fixed;fillColor=strokeColor;rotation=-180;" parent="rUVFYFhkyGE7k6Fw-lOJ-115" vertex="1">
          <mxGeometry x="604.5" y="511" width="6" height="12" as="geometry" />
        </mxCell>
        <mxCell id="rUVFYFhkyGE7k6Fw-lOJ-71" value="&lt;b&gt;Сообщение&lt;/b&gt;" style="swimlane;fontStyle=0;childLayout=stackLayout;horizontal=1;startSize=26;fillColor=#ffe6cc;horizontalStack=0;resizeParent=1;resizeParentMax=0;resizeLast=0;collapsible=1;marginBottom=0;whiteSpace=wrap;html=1;strokeColor=#d79b00;" parent="rUVFYFhkyGE7k6Fw-lOJ-115" vertex="1">
          <mxGeometry x="145" y="675" width="114" height="78" as="geometry" />
        </mxCell>
        <mxCell id="rUVFYFhkyGE7k6Fw-lOJ-72" value="Дата, время" style="text;strokeColor=none;fillColor=none;align=left;verticalAlign=top;spacingLeft=4;spacingRight=4;overflow=hidden;rotatable=0;points=[[0,0.5],[1,0.5]];portConstraint=eastwest;whiteSpace=wrap;html=1;" parent="rUVFYFhkyGE7k6Fw-lOJ-71" vertex="1">
          <mxGeometry y="26" width="114" height="26" as="geometry" />
        </mxCell>
        <mxCell id="rUVFYFhkyGE7k6Fw-lOJ-73" value="Содержание" style="text;strokeColor=none;fillColor=none;align=left;verticalAlign=top;spacingLeft=4;spacingRight=4;overflow=hidden;rotatable=0;points=[[0,0.5],[1,0.5]];portConstraint=eastwest;whiteSpace=wrap;html=1;" parent="rUVFYFhkyGE7k6Fw-lOJ-71" vertex="1">
          <mxGeometry y="52" width="114" height="26" as="geometry" />
        </mxCell>
        <mxCell id="dWjFg7sWqB5XeoUjc9Y1-32" value="" style="triangle;aspect=fixed;fillColor=strokeColor;rotation=90;" vertex="1" parent="rUVFYFhkyGE7k6Fw-lOJ-115">
          <mxGeometry x="54" y="564" width="6" height="12" as="geometry" />
        </mxCell>
        <mxCell id="dWjFg7sWqB5XeoUjc9Y1-37" value="" style="triangle;aspect=fixed;fillColor=strokeColor;rotation=-180;" vertex="1" parent="rUVFYFhkyGE7k6Fw-lOJ-115">
          <mxGeometry x="350" y="611" width="6" height="12" as="geometry" />
        </mxCell>
        <mxCell id="rUVFYFhkyGE7k6Fw-lOJ-4" value="&lt;b&gt;&lt;i&gt;Соискатель&lt;/i&gt;&lt;/b&gt;" style="swimlane;fontStyle=0;childLayout=stackLayout;horizontal=1;startSize=26;fillColor=#ffe6cc;horizontalStack=0;resizeParent=1;resizeParentMax=0;resizeLast=0;collapsible=1;marginBottom=0;whiteSpace=wrap;html=1;strokeColor=#d79b00;" parent="rUVFYFhkyGE7k6Fw-lOJ-115" vertex="1">
          <mxGeometry x="692" y="508.5" width="120" height="129" as="geometry" />
        </mxCell>
        <mxCell id="rUVFYFhkyGE7k6Fw-lOJ-5" value="ФИО" style="text;strokeColor=none;fillColor=none;align=left;verticalAlign=top;spacingLeft=4;spacingRight=4;overflow=hidden;rotatable=0;points=[[0,0.5],[1,0.5]];portConstraint=eastwest;whiteSpace=wrap;html=1;" parent="rUVFYFhkyGE7k6Fw-lOJ-4" vertex="1">
          <mxGeometry y="26" width="120" height="26" as="geometry" />
        </mxCell>
        <mxCell id="rUVFYFhkyGE7k6Fw-lOJ-48" value="телефон" style="text;strokeColor=none;fillColor=none;align=left;verticalAlign=top;spacingLeft=4;spacingRight=4;overflow=hidden;rotatable=0;points=[[0,0.5],[1,0.5]];portConstraint=eastwest;whiteSpace=wrap;html=1;" parent="rUVFYFhkyGE7k6Fw-lOJ-4" vertex="1">
          <mxGeometry y="52" width="120" height="26" as="geometry" />
        </mxCell>
        <mxCell id="FN2UPvSUZBVVW4ZiT5Ys-19" value="email" style="text;strokeColor=none;fillColor=none;align=left;verticalAlign=top;spacingLeft=4;spacingRight=4;overflow=hidden;rotatable=0;points=[[0,0.5],[1,0.5]];portConstraint=eastwest;whiteSpace=wrap;html=1;" parent="rUVFYFhkyGE7k6Fw-lOJ-4" vertex="1">
          <mxGeometry y="78" width="120" height="25" as="geometry" />
        </mxCell>
        <mxCell id="rUVFYFhkyGE7k6Fw-lOJ-6" value="ID" style="text;strokeColor=none;fillColor=none;align=left;verticalAlign=top;spacingLeft=4;spacingRight=4;overflow=hidden;rotatable=0;points=[[0,0.5],[1,0.5]];portConstraint=eastwest;whiteSpace=wrap;html=1;" parent="rUVFYFhkyGE7k6Fw-lOJ-4" vertex="1">
          <mxGeometry y="103" width="120" height="26" as="geometry" />
        </mxCell>
        <mxCell id="dWjFg7sWqB5XeoUjc9Y1-35" value="" style="html=1;verticalAlign=bottom;endArrow=none;rounded=0;endFill=0;entryX=-0.002;entryY=0.659;entryDx=0;entryDy=0;entryPerimeter=0;exitX=0.5;exitY=0;exitDx=0;exitDy=0;edgeStyle=orthogonalEdgeStyle;" edge="1" parent="rUVFYFhkyGE7k6Fw-lOJ-115" source="rUVFYFhkyGE7k6Fw-lOJ-71" target="rUVFYFhkyGE7k6Fw-lOJ-6">
          <mxGeometry width="80" relative="1" as="geometry">
            <mxPoint x="569" y="585" as="sourcePoint" />
            <mxPoint x="649" y="585" as="targetPoint" />
            <Array as="points">
              <mxPoint x="202" y="629" />
              <mxPoint x="692" y="629" />
            </Array>
          </mxGeometry>
        </mxCell>
        <mxCell id="dWjFg7sWqB5XeoUjc9Y1-36" value="отправляет работодателю" style="edgeLabel;html=1;align=center;verticalAlign=middle;resizable=0;points=[];" vertex="1" connectable="0" parent="dWjFg7sWqB5XeoUjc9Y1-35">
          <mxGeometry x="-0.0782" relative="1" as="geometry">
            <mxPoint x="23" y="-12" as="offset" />
          </mxGeometry>
        </mxCell>
        <mxCell id="dWjFg7sWqB5XeoUjc9Y1-38" value="*" style="edgeLabel;html=1;align=center;verticalAlign=middle;resizable=0;points=[];" vertex="1" connectable="0" parent="dWjFg7sWqB5XeoUjc9Y1-35">
          <mxGeometry x="0.9376" y="2" relative="1" as="geometry">
            <mxPoint x="3" y="18" as="offset" />
          </mxGeometry>
        </mxCell>
        <mxCell id="dWjFg7sWqB5XeoUjc9Y1-39" value="*" style="edgeLabel;html=1;align=center;verticalAlign=middle;resizable=0;points=[];" vertex="1" connectable="0" parent="dWjFg7sWqB5XeoUjc9Y1-35">
          <mxGeometry x="-0.9579" y="-1" relative="1" as="geometry">
            <mxPoint x="12" y="1" as="offset" />
          </mxGeometry>
        </mxCell>
        <mxCell id="rUVFYFhkyGE7k6Fw-lOJ-79" style="rounded=0;orthogonalLoop=1;jettySize=auto;html=1;entryX=0.817;entryY=1.001;entryDx=0;entryDy=0;endArrow=none;endFill=0;exitX=-0.001;exitY=0.149;exitDx=0;exitDy=0;exitPerimeter=0;entryPerimeter=0;edgeStyle=orthogonalEdgeStyle;" parent="rUVFYFhkyGE7k6Fw-lOJ-115" source="rUVFYFhkyGE7k6Fw-lOJ-4" target="rUVFYFhkyGE7k6Fw-lOJ-40" edge="1">
          <mxGeometry relative="1" as="geometry">
            <mxPoint x="678" y="551" as="sourcePoint" />
            <mxPoint x="593" y="915" as="targetPoint" />
          </mxGeometry>
        </mxCell>
        <mxCell id="rUVFYFhkyGE7k6Fw-lOJ-80" value="создает" style="edgeLabel;html=1;align=center;verticalAlign=middle;resizable=0;points=[];rotation=0;" parent="rUVFYFhkyGE7k6Fw-lOJ-79" vertex="1" connectable="0">
          <mxGeometry x="0.1863" y="-1" relative="1" as="geometry">
            <mxPoint x="47" y="-7" as="offset" />
          </mxGeometry>
        </mxCell>
        <mxCell id="rUVFYFhkyGE7k6Fw-lOJ-81" value="*" style="edgeLabel;html=1;align=center;verticalAlign=middle;resizable=0;points=[];" parent="rUVFYFhkyGE7k6Fw-lOJ-79" vertex="1" connectable="0">
          <mxGeometry x="0.9574" relative="1" as="geometry">
            <mxPoint x="-10" y="14" as="offset" />
          </mxGeometry>
        </mxCell>
        <mxCell id="rUVFYFhkyGE7k6Fw-lOJ-82" value="1" style="edgeLabel;html=1;align=center;verticalAlign=middle;resizable=0;points=[];" parent="rUVFYFhkyGE7k6Fw-lOJ-79" vertex="1" connectable="0">
          <mxGeometry x="-0.9592" y="-1" relative="1" as="geometry">
            <mxPoint x="-13" y="14" as="offset" />
          </mxGeometry>
        </mxCell>
        <mxCell id="dWjFg7sWqB5XeoUjc9Y1-43" value="" style="html=1;verticalAlign=bottom;endArrow=none;curved=0;rounded=0;endFill=0;dashed=1;entryX=0.552;entryY=0.001;entryDx=0;entryDy=0;entryPerimeter=0;" edge="1" parent="rUVFYFhkyGE7k6Fw-lOJ-115" target="dWjFg7sWqB5XeoUjc9Y1-44">
          <mxGeometry width="80" relative="1" as="geometry">
            <mxPoint x="391" y="435" as="sourcePoint" />
            <mxPoint x="400" y="478" as="targetPoint" />
          </mxGeometry>
        </mxCell>
        <mxCell id="dWjFg7sWqB5XeoUjc9Y1-44" value="&quot;enumeration&quot;&lt;br style=&quot;border-color: var(--border-color);&quot;&gt;&lt;b&gt;Статус отклика&lt;/b&gt;" style="swimlane;fontStyle=0;childLayout=stackLayout;horizontal=1;startSize=26;fillColor=#ffe6cc;horizontalStack=0;resizeParent=1;resizeParentMax=0;resizeLast=0;collapsible=1;marginBottom=0;whiteSpace=wrap;html=1;strokeColor=#d79b00;" vertex="1" parent="rUVFYFhkyGE7k6Fw-lOJ-115">
          <mxGeometry x="324" y="517" width="121" height="78" as="geometry" />
        </mxCell>
        <mxCell id="dWjFg7sWqB5XeoUjc9Y1-45" value="Приглашение" style="text;strokeColor=none;fillColor=none;align=left;verticalAlign=top;spacingLeft=4;spacingRight=4;overflow=hidden;rotatable=0;points=[[0,0.5],[1,0.5]];portConstraint=eastwest;whiteSpace=wrap;html=1;" vertex="1" parent="dWjFg7sWqB5XeoUjc9Y1-44">
          <mxGeometry y="26" width="121" height="26" as="geometry" />
        </mxCell>
        <mxCell id="dWjFg7sWqB5XeoUjc9Y1-46" value="Отказ" style="text;strokeColor=none;fillColor=none;align=left;verticalAlign=top;spacingLeft=4;spacingRight=4;overflow=hidden;rotatable=0;points=[[0,0.5],[1,0.5]];portConstraint=eastwest;whiteSpace=wrap;html=1;" vertex="1" parent="dWjFg7sWqB5XeoUjc9Y1-44">
          <mxGeometry y="52" width="121" height="26" as="geometry" />
        </mxCell>
        <mxCell id="dWjFg7sWqB5XeoUjc9Y1-51" value="" style="triangle;aspect=fixed;fillColor=strokeColor;rotation=0;" vertex="1" parent="rUVFYFhkyGE7k6Fw-lOJ-115">
          <mxGeometry x="763" y="396" width="6" height="12" as="geometry" />
        </mxCell>
        <mxCell id="rUVFYFhkyGE7k6Fw-lOJ-66" value="&lt;b&gt;Чат&lt;/b&gt;" style="swimlane;fontStyle=0;childLayout=stackLayout;horizontal=1;startSize=26;fillColor=#ffe6cc;horizontalStack=0;resizeParent=1;resizeParentMax=0;resizeLast=0;collapsible=1;marginBottom=0;whiteSpace=wrap;html=1;strokeColor=#d79b00;" parent="rUVFYFhkyGE7k6Fw-lOJ-115" vertex="1">
          <mxGeometry x="466" y="684" width="160" height="60" as="geometry" />
        </mxCell>
        <mxCell id="rUVFYFhkyGE7k6Fw-lOJ-67" value="Название компании/ФИО" style="text;strokeColor=none;fillColor=none;align=left;verticalAlign=top;spacingLeft=4;spacingRight=4;overflow=hidden;rotatable=0;points=[[0,0.5],[1,0.5]];portConstraint=eastwest;whiteSpace=wrap;html=1;" parent="rUVFYFhkyGE7k6Fw-lOJ-66" vertex="1">
          <mxGeometry y="26" width="160" height="34" as="geometry" />
        </mxCell>
        <mxCell id="rUVFYFhkyGE7k6Fw-lOJ-68" value="" style="endArrow=diamondThin;endFill=1;endSize=24;html=1;rounded=0;entryX=0.391;entryY=1.002;entryDx=0;entryDy=0;entryPerimeter=0;exitX=0.403;exitY=0.004;exitDx=0;exitDy=0;exitPerimeter=0;" parent="rUVFYFhkyGE7k6Fw-lOJ-115" source="rUVFYFhkyGE7k6Fw-lOJ-66" target="rUVFYFhkyGE7k6Fw-lOJ-40" edge="1">
          <mxGeometry width="160" relative="1" as="geometry">
            <mxPoint x="527" y="685" as="sourcePoint" />
            <mxPoint x="552" y="455" as="targetPoint" />
          </mxGeometry>
        </mxCell>
        <mxCell id="rUVFYFhkyGE7k6Fw-lOJ-69" value="1" style="edgeLabel;html=1;align=center;verticalAlign=middle;resizable=0;points=[];" parent="rUVFYFhkyGE7k6Fw-lOJ-68" vertex="1" connectable="0">
          <mxGeometry x="-0.7597" relative="1" as="geometry">
            <mxPoint x="15" y="14" as="offset" />
          </mxGeometry>
        </mxCell>
        <mxCell id="rUVFYFhkyGE7k6Fw-lOJ-70" value="1" style="edgeLabel;html=1;align=center;verticalAlign=middle;resizable=0;points=[];" parent="rUVFYFhkyGE7k6Fw-lOJ-68" vertex="1" connectable="0">
          <mxGeometry x="0.4281" y="-1" relative="1" as="geometry">
            <mxPoint x="16" y="-51" as="offset" />
          </mxGeometry>
        </mxCell>
        <mxCell id="rUVFYFhkyGE7k6Fw-lOJ-7" value="&lt;b&gt;Вакансия&lt;/b&gt;" style="swimlane;fontStyle=0;childLayout=stackLayout;horizontal=1;startSize=26;fillColor=#ffe6cc;horizontalStack=0;resizeParent=1;resizeParentMax=0;resizeLast=0;collapsible=1;marginBottom=0;whiteSpace=wrap;html=1;strokeColor=#d79b00;" parent="rUVFYFhkyGE7k6Fw-lOJ-115" vertex="1">
          <mxGeometry x="477.5" y="104" width="133" height="130" as="geometry" />
        </mxCell>
        <mxCell id="rUVFYFhkyGE7k6Fw-lOJ-8" value="Дата размещения" style="text;strokeColor=none;fillColor=none;align=left;verticalAlign=top;spacingLeft=4;spacingRight=4;overflow=hidden;rotatable=0;points=[[0,0.5],[1,0.5]];portConstraint=eastwest;whiteSpace=wrap;html=1;" parent="rUVFYFhkyGE7k6Fw-lOJ-7" vertex="1">
          <mxGeometry y="26" width="133" height="26" as="geometry" />
        </mxCell>
        <mxCell id="rUVFYFhkyGE7k6Fw-lOJ-9" value="Описание" style="text;strokeColor=none;fillColor=none;align=left;verticalAlign=top;spacingLeft=4;spacingRight=4;overflow=hidden;rotatable=0;points=[[0,0.5],[1,0.5]];portConstraint=eastwest;whiteSpace=wrap;html=1;" parent="rUVFYFhkyGE7k6Fw-lOJ-7" vertex="1">
          <mxGeometry y="52" width="133" height="26" as="geometry" />
        </mxCell>
        <mxCell id="rUVFYFhkyGE7k6Fw-lOJ-10" value="ID" style="text;strokeColor=none;fillColor=none;align=left;verticalAlign=top;spacingLeft=4;spacingRight=4;overflow=hidden;rotatable=0;points=[[0,0.5],[1,0.5]];portConstraint=eastwest;whiteSpace=wrap;html=1;" parent="rUVFYFhkyGE7k6Fw-lOJ-7" vertex="1">
          <mxGeometry y="78" width="133" height="26" as="geometry" />
        </mxCell>
        <mxCell id="dWjFg7sWqB5XeoUjc9Y1-42" value="Статус" style="text;strokeColor=none;fillColor=none;align=left;verticalAlign=top;spacingLeft=4;spacingRight=4;overflow=hidden;rotatable=0;points=[[0,0.5],[1,0.5]];portConstraint=eastwest;whiteSpace=wrap;html=1;" vertex="1" parent="rUVFYFhkyGE7k6Fw-lOJ-7">
          <mxGeometry y="104" width="133" height="26" as="geometry" />
        </mxCell>
        <mxCell id="rUVFYFhkyGE7k6Fw-lOJ-41" value="" style="endArrow=diamondThin;endFill=1;endSize=24;html=1;rounded=0;entryX=0.575;entryY=0.959;entryDx=0;entryDy=0;exitX=0.586;exitY=-0.008;exitDx=0;exitDy=0;exitPerimeter=0;entryPerimeter=0;" parent="rUVFYFhkyGE7k6Fw-lOJ-115" source="rUVFYFhkyGE7k6Fw-lOJ-39" target="dWjFg7sWqB5XeoUjc9Y1-42" edge="1">
          <mxGeometry width="160" relative="1" as="geometry">
            <mxPoint x="663" y="327" as="sourcePoint" />
            <mxPoint x="508" y="328" as="targetPoint" />
          </mxGeometry>
        </mxCell>
        <mxCell id="rUVFYFhkyGE7k6Fw-lOJ-42" value="1" style="edgeLabel;html=1;align=center;verticalAlign=middle;resizable=0;points=[];" parent="rUVFYFhkyGE7k6Fw-lOJ-41" vertex="1" connectable="0">
          <mxGeometry x="0.5714" relative="1" as="geometry">
            <mxPoint x="19" y="-1" as="offset" />
          </mxGeometry>
        </mxCell>
        <mxCell id="rUVFYFhkyGE7k6Fw-lOJ-43" value="*" style="edgeLabel;html=1;align=center;verticalAlign=middle;resizable=0;points=[];" parent="rUVFYFhkyGE7k6Fw-lOJ-41" vertex="1" connectable="0">
          <mxGeometry x="-0.8861" y="-1" relative="1" as="geometry">
            <mxPoint x="14" y="-5" as="offset" />
          </mxGeometry>
        </mxCell>
        <mxCell id="rUVFYFhkyGE7k6Fw-lOJ-95" value="&lt;b&gt;Работодатель&lt;/b&gt;" style="swimlane;fontStyle=0;childLayout=stackLayout;horizontal=1;startSize=26;fillColor=#ffe6cc;horizontalStack=0;resizeParent=1;resizeParentMax=0;resizeLast=0;collapsible=1;marginBottom=0;whiteSpace=wrap;html=1;strokeColor=#d79b00;" parent="rUVFYFhkyGE7k6Fw-lOJ-115" vertex="1">
          <mxGeometry x="148" y="374" width="113" height="110" as="geometry" />
        </mxCell>
        <mxCell id="rUVFYFhkyGE7k6Fw-lOJ-96" value="Информация о компании" style="text;strokeColor=none;fillColor=none;align=left;verticalAlign=top;spacingLeft=4;spacingRight=4;overflow=hidden;rotatable=0;points=[[0,0.5],[1,0.5]];portConstraint=eastwest;whiteSpace=wrap;html=1;" parent="rUVFYFhkyGE7k6Fw-lOJ-95" vertex="1">
          <mxGeometry y="26" width="113" height="33" as="geometry" />
        </mxCell>
        <mxCell id="FN2UPvSUZBVVW4ZiT5Ys-1" value="email" style="text;strokeColor=none;fillColor=none;align=left;verticalAlign=top;spacingLeft=4;spacingRight=4;overflow=hidden;rotatable=0;points=[[0,0.5],[1,0.5]];portConstraint=eastwest;whiteSpace=wrap;html=1;" parent="rUVFYFhkyGE7k6Fw-lOJ-95" vertex="1">
          <mxGeometry y="59" width="113" height="25" as="geometry" />
        </mxCell>
        <mxCell id="rUVFYFhkyGE7k6Fw-lOJ-97" value="ID" style="text;strokeColor=none;fillColor=none;align=left;verticalAlign=top;spacingLeft=4;spacingRight=4;overflow=hidden;rotatable=0;points=[[0,0.5],[1,0.5]];portConstraint=eastwest;whiteSpace=wrap;html=1;" parent="rUVFYFhkyGE7k6Fw-lOJ-95" vertex="1">
          <mxGeometry y="84" width="113" height="26" as="geometry" />
        </mxCell>
        <mxCell id="dWjFg7sWqB5XeoUjc9Y1-28" value="" style="html=1;verticalAlign=bottom;endArrow=none;rounded=0;entryX=-0.004;entryY=0.281;entryDx=0;entryDy=0;entryPerimeter=0;endFill=0;exitX=-0.011;exitY=0.288;exitDx=0;exitDy=0;exitPerimeter=0;edgeStyle=orthogonalEdgeStyle;" edge="1" parent="rUVFYFhkyGE7k6Fw-lOJ-115" source="rUVFYFhkyGE7k6Fw-lOJ-96" target="rUVFYFhkyGE7k6Fw-lOJ-72">
          <mxGeometry width="80" relative="1" as="geometry">
            <mxPoint x="41" y="710" as="sourcePoint" />
            <mxPoint x="121" y="710" as="targetPoint" />
            <Array as="points">
              <mxPoint x="71" y="409" />
              <mxPoint x="71" y="708" />
            </Array>
          </mxGeometry>
        </mxCell>
        <mxCell id="dWjFg7sWqB5XeoUjc9Y1-29" value="отправляет соискателю" style="edgeLabel;html=1;align=center;verticalAlign=middle;resizable=0;points=[];" vertex="1" connectable="0" parent="dWjFg7sWqB5XeoUjc9Y1-28">
          <mxGeometry x="0.2131" y="-2" relative="1" as="geometry">
            <mxPoint x="4" y="-48" as="offset" />
          </mxGeometry>
        </mxCell>
        <mxCell id="dWjFg7sWqB5XeoUjc9Y1-33" value="*" style="edgeLabel;html=1;align=center;verticalAlign=middle;resizable=0;points=[];" vertex="1" connectable="0" parent="dWjFg7sWqB5XeoUjc9Y1-28">
          <mxGeometry x="-0.9268" y="-2" relative="1" as="geometry">
            <mxPoint x="1" y="19" as="offset" />
          </mxGeometry>
        </mxCell>
        <mxCell id="dWjFg7sWqB5XeoUjc9Y1-34" value="*" style="edgeLabel;html=1;align=center;verticalAlign=middle;resizable=0;points=[];" vertex="1" connectable="0" parent="dWjFg7sWqB5XeoUjc9Y1-28">
          <mxGeometry x="0.9516" relative="1" as="geometry">
            <mxPoint x="-2" y="-12" as="offset" />
          </mxGeometry>
        </mxCell>
        <mxCell id="rUVFYFhkyGE7k6Fw-lOJ-98" style="rounded=0;orthogonalLoop=1;jettySize=auto;html=1;endArrow=none;endFill=0;entryX=0;entryY=0.5;entryDx=0;entryDy=0;edgeStyle=orthogonalEdgeStyle;" parent="rUVFYFhkyGE7k6Fw-lOJ-115" target="rUVFYFhkyGE7k6Fw-lOJ-40" edge="1">
          <mxGeometry relative="1" as="geometry">
            <mxPoint x="261" y="435" as="sourcePoint" />
            <mxPoint x="361" y="719" as="targetPoint" />
            <Array as="points">
              <mxPoint x="261" y="435" />
            </Array>
          </mxGeometry>
        </mxCell>
        <mxCell id="rUVFYFhkyGE7k6Fw-lOJ-101" value="*" style="edgeLabel;html=1;align=center;verticalAlign=middle;resizable=0;points=[];" parent="rUVFYFhkyGE7k6Fw-lOJ-98" vertex="1" connectable="0">
          <mxGeometry x="0.9682" relative="1" as="geometry">
            <mxPoint x="-12" y="16" as="offset" />
          </mxGeometry>
        </mxCell>
        <mxCell id="rUVFYFhkyGE7k6Fw-lOJ-128" value="1" style="edgeLabel;html=1;align=center;verticalAlign=middle;resizable=0;points=[];" parent="rUVFYFhkyGE7k6Fw-lOJ-98" vertex="1" connectable="0">
          <mxGeometry x="-0.8436" y="-2" relative="1" as="geometry">
            <mxPoint x="-2" y="12" as="offset" />
          </mxGeometry>
        </mxCell>
        <mxCell id="rUVFYFhkyGE7k6Fw-lOJ-129" value="получает" style="edgeLabel;html=1;align=center;verticalAlign=middle;resizable=0;points=[];" parent="rUVFYFhkyGE7k6Fw-lOJ-98" vertex="1" connectable="0">
          <mxGeometry x="-0.0741" y="-2" relative="1" as="geometry">
            <mxPoint x="16" y="-13" as="offset" />
          </mxGeometry>
        </mxCell>
        <mxCell id="rUVFYFhkyGE7k6Fw-lOJ-109" style="rounded=0;orthogonalLoop=1;jettySize=auto;html=1;endArrow=none;endFill=0;entryX=0;entryY=0.348;entryDx=0;entryDy=0;entryPerimeter=0;exitX=1;exitY=0.125;exitDx=0;exitDy=0;exitPerimeter=0;edgeStyle=orthogonalEdgeStyle;" parent="rUVFYFhkyGE7k6Fw-lOJ-115" source="rUVFYFhkyGE7k6Fw-lOJ-95" target="rUVFYFhkyGE7k6Fw-lOJ-10" edge="1">
          <mxGeometry relative="1" as="geometry">
            <mxPoint x="270" y="387" as="sourcePoint" />
            <mxPoint x="461" y="363" as="targetPoint" />
          </mxGeometry>
        </mxCell>
        <mxCell id="rUVFYFhkyGE7k6Fw-lOJ-110" value="*" style="edgeLabel;html=1;align=center;verticalAlign=middle;resizable=0;points=[];" parent="rUVFYFhkyGE7k6Fw-lOJ-109" vertex="1" connectable="0">
          <mxGeometry x="0.9682" relative="1" as="geometry">
            <mxPoint x="-10" y="16" as="offset" />
          </mxGeometry>
        </mxCell>
        <mxCell id="rUVFYFhkyGE7k6Fw-lOJ-119" value="1" style="edgeLabel;html=1;align=center;verticalAlign=middle;resizable=0;points=[];" parent="rUVFYFhkyGE7k6Fw-lOJ-109" vertex="1" connectable="0">
          <mxGeometry x="-0.9183" y="-2" relative="1" as="geometry">
            <mxPoint x="-2" y="12" as="offset" />
          </mxGeometry>
        </mxCell>
        <mxCell id="rUVFYFhkyGE7k6Fw-lOJ-120" value="создает" style="edgeLabel;html=1;align=center;verticalAlign=middle;resizable=0;points=[];" parent="rUVFYFhkyGE7k6Fw-lOJ-109" vertex="1" connectable="0">
          <mxGeometry x="0.62" relative="1" as="geometry">
            <mxPoint x="-89" y="181" as="offset" />
          </mxGeometry>
        </mxCell>
        <mxCell id="rUVFYFhkyGE7k6Fw-lOJ-74" value="" style="endArrow=diamondThin;endFill=1;endSize=24;html=1;rounded=0;exitX=0.999;exitY=0.151;exitDx=0;exitDy=0;exitPerimeter=0;entryX=0;entryY=0.345;entryDx=0;entryDy=0;entryPerimeter=0;" parent="rUVFYFhkyGE7k6Fw-lOJ-115" source="rUVFYFhkyGE7k6Fw-lOJ-72" target="rUVFYFhkyGE7k6Fw-lOJ-66" edge="1">
          <mxGeometry width="160" relative="1" as="geometry">
            <mxPoint x="514" y="479.75" as="sourcePoint" />
            <mxPoint x="465" y="649" as="targetPoint" />
          </mxGeometry>
        </mxCell>
        <mxCell id="rUVFYFhkyGE7k6Fw-lOJ-75" value="1" style="edgeLabel;html=1;align=center;verticalAlign=middle;resizable=0;points=[];" parent="rUVFYFhkyGE7k6Fw-lOJ-74" vertex="1" connectable="0">
          <mxGeometry x="0.3206" relative="1" as="geometry">
            <mxPoint x="27" y="21" as="offset" />
          </mxGeometry>
        </mxCell>
        <mxCell id="rUVFYFhkyGE7k6Fw-lOJ-76" value="*" style="edgeLabel;html=1;align=center;verticalAlign=middle;resizable=0;points=[];" parent="rUVFYFhkyGE7k6Fw-lOJ-74" vertex="1" connectable="0">
          <mxGeometry x="-0.82" relative="1" as="geometry">
            <mxPoint x="-4" y="21" as="offset" />
          </mxGeometry>
        </mxCell>
        <mxCell id="dWjFg7sWqB5XeoUjc9Y1-52" value="" style="html=1;verticalAlign=bottom;endArrow=none;rounded=0;exitX=1;exitY=0.287;exitDx=0;exitDy=0;exitPerimeter=0;endFill=0;edgeStyle=orthogonalEdgeStyle;entryX=1;entryY=0.675;entryDx=0;entryDy=0;entryPerimeter=0;" edge="1" parent="rUVFYFhkyGE7k6Fw-lOJ-115" source="rUVFYFhkyGE7k6Fw-lOJ-10" target="rUVFYFhkyGE7k6Fw-lOJ-6">
          <mxGeometry x="1" y="229" width="80" relative="1" as="geometry">
            <mxPoint x="674" y="182" as="sourcePoint" />
            <mxPoint x="812" y="629" as="targetPoint" />
            <Array as="points">
              <mxPoint x="997" y="190" />
              <mxPoint x="997" y="629" />
            </Array>
            <mxPoint x="100" y="23" as="offset" />
          </mxGeometry>
        </mxCell>
        <mxCell id="dWjFg7sWqB5XeoUjc9Y1-53" value="1" style="edgeLabel;html=1;align=center;verticalAlign=middle;resizable=0;points=[];" vertex="1" connectable="0" parent="dWjFg7sWqB5XeoUjc9Y1-52">
          <mxGeometry x="0.9703" y="1" relative="1" as="geometry">
            <mxPoint x="-5" y="10" as="offset" />
          </mxGeometry>
        </mxCell>
        <mxCell id="dWjFg7sWqB5XeoUjc9Y1-54" value="*" style="edgeLabel;html=1;align=center;verticalAlign=middle;resizable=0;points=[];" vertex="1" connectable="0" parent="dWjFg7sWqB5XeoUjc9Y1-52">
          <mxGeometry x="-0.9717" y="-1" relative="1" as="geometry">
            <mxPoint x="-3" y="15" as="offset" />
          </mxGeometry>
        </mxCell>
        <mxCell id="dWjFg7sWqB5XeoUjc9Y1-55" value="ищет" style="edgeLabel;html=1;align=center;verticalAlign=middle;resizable=0;points=[];" vertex="1" connectable="0" parent="dWjFg7sWqB5XeoUjc9Y1-52">
          <mxGeometry x="0.9031" relative="1" as="geometry">
            <mxPoint x="9" y="-9" as="offset" />
          </mxGeometry>
        </mxCell>
        <mxCell id="dWjFg7sWqB5XeoUjc9Y1-56" value="" style="triangle;aspect=fixed;fillColor=strokeColor;rotation=0;" vertex="1" parent="rUVFYFhkyGE7k6Fw-lOJ-115">
          <mxGeometry x="888" y="614" width="6" height="12" as="geometry" />
        </mxCell>
        <mxCell id="rUVFYFhkyGE7k6Fw-lOJ-21" value="&lt;b&gt;Договор&lt;/b&gt;" style="swimlane;fontStyle=0;childLayout=stackLayout;horizontal=1;startSize=26;fillColor=#ffe6cc;horizontalStack=0;resizeParent=1;resizeParentMax=0;resizeLast=0;collapsible=1;marginBottom=0;whiteSpace=wrap;html=1;strokeColor=#d79b00;" parent="1" vertex="1">
          <mxGeometry x="-121" y="720" width="131" height="170" as="geometry" />
        </mxCell>
        <mxCell id="rUVFYFhkyGE7k6Fw-lOJ-22" value="Номер" style="text;strokeColor=none;fillColor=none;align=left;verticalAlign=top;spacingLeft=4;spacingRight=4;overflow=hidden;rotatable=0;points=[[0,0.5],[1,0.5]];portConstraint=eastwest;whiteSpace=wrap;html=1;" parent="rUVFYFhkyGE7k6Fw-lOJ-21" vertex="1">
          <mxGeometry y="26" width="131" height="26" as="geometry" />
        </mxCell>
        <mxCell id="rUVFYFhkyGE7k6Fw-lOJ-23" value="Дата" style="text;strokeColor=none;fillColor=none;align=left;verticalAlign=top;spacingLeft=4;spacingRight=4;overflow=hidden;rotatable=0;points=[[0,0.5],[1,0.5]];portConstraint=eastwest;whiteSpace=wrap;html=1;" parent="rUVFYFhkyGE7k6Fw-lOJ-21" vertex="1">
          <mxGeometry y="52" width="131" height="28" as="geometry" />
        </mxCell>
        <mxCell id="rUVFYFhkyGE7k6Fw-lOJ-24" value="Условия" style="text;strokeColor=none;fillColor=none;align=left;verticalAlign=top;spacingLeft=4;spacingRight=4;overflow=hidden;rotatable=0;points=[[0,0.5],[1,0.5]];portConstraint=eastwest;whiteSpace=wrap;html=1;" parent="rUVFYFhkyGE7k6Fw-lOJ-21" vertex="1">
          <mxGeometry y="80" width="131" height="30" as="geometry" />
        </mxCell>
        <mxCell id="rUVFYFhkyGE7k6Fw-lOJ-25" value="Стоимость услуг" style="text;strokeColor=none;fillColor=none;align=left;verticalAlign=top;spacingLeft=4;spacingRight=4;overflow=hidden;rotatable=0;points=[[0,0.5],[1,0.5]];portConstraint=eastwest;whiteSpace=wrap;html=1;" parent="rUVFYFhkyGE7k6Fw-lOJ-21" vertex="1">
          <mxGeometry y="110" width="131" height="30" as="geometry" />
        </mxCell>
        <mxCell id="rUVFYFhkyGE7k6Fw-lOJ-26" value="Срок оказания услуг" style="text;strokeColor=none;fillColor=none;align=left;verticalAlign=top;spacingLeft=4;spacingRight=4;overflow=hidden;rotatable=0;points=[[0,0.5],[1,0.5]];portConstraint=eastwest;whiteSpace=wrap;html=1;" parent="rUVFYFhkyGE7k6Fw-lOJ-21" vertex="1">
          <mxGeometry y="140" width="131" height="30" as="geometry" />
        </mxCell>
        <mxCell id="rUVFYFhkyGE7k6Fw-lOJ-28" style="rounded=0;orthogonalLoop=1;jettySize=auto;html=1;endArrow=none;endFill=0;entryX=0.498;entryY=1.006;entryDx=0;entryDy=0;entryPerimeter=0;edgeStyle=orthogonalEdgeStyle;exitX=0.489;exitY=0;exitDx=0;exitDy=0;exitPerimeter=0;" parent="1" source="rUVFYFhkyGE7k6Fw-lOJ-95" target="rUVFYFhkyGE7k6Fw-lOJ-26" edge="1">
          <mxGeometry relative="1" as="geometry">
            <mxPoint x="-57" y="1009" as="sourcePoint" />
            <mxPoint x="-73" y="802" as="targetPoint" />
          </mxGeometry>
        </mxCell>
        <mxCell id="rUVFYFhkyGE7k6Fw-lOJ-29" value="заключает" style="edgeLabel;html=1;align=center;verticalAlign=middle;resizable=0;points=[];" parent="rUVFYFhkyGE7k6Fw-lOJ-28" vertex="1" connectable="0">
          <mxGeometry x="0.2333" y="-2" relative="1" as="geometry">
            <mxPoint x="-35" y="18" as="offset" />
          </mxGeometry>
        </mxCell>
        <mxCell id="rUVFYFhkyGE7k6Fw-lOJ-31" value="*" style="edgeLabel;html=1;align=center;verticalAlign=middle;resizable=0;points=[];" parent="rUVFYFhkyGE7k6Fw-lOJ-28" vertex="1" connectable="0">
          <mxGeometry x="0.9534" relative="1" as="geometry">
            <mxPoint x="14" y="13" as="offset" />
          </mxGeometry>
        </mxCell>
        <mxCell id="rUVFYFhkyGE7k6Fw-lOJ-114" value="1" style="edgeLabel;html=1;align=center;verticalAlign=middle;resizable=0;points=[];" parent="rUVFYFhkyGE7k6Fw-lOJ-28" vertex="1" connectable="0">
          <mxGeometry x="-0.8106" y="2" relative="1" as="geometry">
            <mxPoint x="17" as="offset" />
          </mxGeometry>
        </mxCell>
        <mxCell id="rUVFYFhkyGE7k6Fw-lOJ-33" style="edgeStyle=orthogonalEdgeStyle;rounded=0;orthogonalLoop=1;jettySize=auto;html=1;endArrow=none;endFill=0;exitX=0.5;exitY=0;exitDx=0;exitDy=0;entryX=0.5;entryY=0;entryDx=0;entryDy=0;" parent="1" source="rUVFYFhkyGE7k6Fw-lOJ-7" edge="1" target="rUVFYFhkyGE7k6Fw-lOJ-21">
          <mxGeometry relative="1" as="geometry">
            <mxPoint x="9" y="703" as="targetPoint" />
            <Array as="points">
              <mxPoint x="284" y="691" />
              <mxPoint x="-55" y="691" />
            </Array>
            <mxPoint x="199" y="723" as="sourcePoint" />
          </mxGeometry>
        </mxCell>
        <mxCell id="rUVFYFhkyGE7k6Fw-lOJ-34" value="1" style="edgeLabel;html=1;align=center;verticalAlign=middle;resizable=0;points=[];" parent="rUVFYFhkyGE7k6Fw-lOJ-33" vertex="1" connectable="0">
          <mxGeometry x="0.9508" relative="1" as="geometry">
            <mxPoint x="18" y="-2" as="offset" />
          </mxGeometry>
        </mxCell>
        <mxCell id="rUVFYFhkyGE7k6Fw-lOJ-35" value="1..*" style="edgeLabel;html=1;align=center;verticalAlign=middle;resizable=0;points=[];" parent="rUVFYFhkyGE7k6Fw-lOJ-33" vertex="1" connectable="0">
          <mxGeometry x="-0.9632" relative="1" as="geometry">
            <mxPoint x="-15" y="-14" as="offset" />
          </mxGeometry>
        </mxCell>
        <mxCell id="rUVFYFhkyGE7k6Fw-lOJ-49" value="&lt;b&gt;Резюме&lt;/b&gt;" style="swimlane;fontStyle=0;childLayout=stackLayout;horizontal=1;startSize=26;fillColor=#ffe6cc;horizontalStack=0;resizeParent=1;resizeParentMax=0;resizeLast=0;collapsible=1;marginBottom=0;whiteSpace=wrap;html=1;strokeColor=#d79b00;" parent="1" vertex="1">
          <mxGeometry x="610" y="1006" width="111" height="104" as="geometry" />
        </mxCell>
        <mxCell id="rUVFYFhkyGE7k6Fw-lOJ-50" value="Описание" style="text;strokeColor=none;fillColor=none;align=left;verticalAlign=top;spacingLeft=4;spacingRight=4;overflow=hidden;rotatable=0;points=[[0,0.5],[1,0.5]];portConstraint=eastwest;whiteSpace=wrap;html=1;" parent="rUVFYFhkyGE7k6Fw-lOJ-49" vertex="1">
          <mxGeometry y="26" width="111" height="26" as="geometry" />
        </mxCell>
        <mxCell id="rUVFYFhkyGE7k6Fw-lOJ-51" value="ID" style="text;strokeColor=none;fillColor=none;align=left;verticalAlign=top;spacingLeft=4;spacingRight=4;overflow=hidden;rotatable=0;points=[[0,0.5],[1,0.5]];portConstraint=eastwest;whiteSpace=wrap;html=1;" parent="rUVFYFhkyGE7k6Fw-lOJ-49" vertex="1">
          <mxGeometry y="52" width="111" height="26" as="geometry" />
        </mxCell>
        <mxCell id="dWjFg7sWqB5XeoUjc9Y1-41" value="Статус" style="text;strokeColor=none;fillColor=none;align=left;verticalAlign=top;spacingLeft=4;spacingRight=4;overflow=hidden;rotatable=0;points=[[0,0.5],[1,0.5]];portConstraint=eastwest;whiteSpace=wrap;html=1;" vertex="1" parent="rUVFYFhkyGE7k6Fw-lOJ-49">
          <mxGeometry y="78" width="111" height="26" as="geometry" />
        </mxCell>
        <mxCell id="rUVFYFhkyGE7k6Fw-lOJ-84" style="rounded=0;orthogonalLoop=1;jettySize=auto;html=1;endArrow=none;endFill=0;exitX=1.002;exitY=0.144;exitDx=0;exitDy=0;exitPerimeter=0;edgeStyle=orthogonalEdgeStyle;entryX=0.508;entryY=1;entryDx=0;entryDy=0;entryPerimeter=0;" parent="1" source="rUVFYFhkyGE7k6Fw-lOJ-4" target="dWjFg7sWqB5XeoUjc9Y1-41" edge="1">
          <mxGeometry relative="1" as="geometry">
            <mxPoint x="665.8" y="1072" as="sourcePoint" />
            <mxPoint x="694" y="1061" as="targetPoint" />
          </mxGeometry>
        </mxCell>
        <mxCell id="rUVFYFhkyGE7k6Fw-lOJ-85" value="создает" style="edgeLabel;html=1;align=center;verticalAlign=middle;resizable=0;points=[];" parent="rUVFYFhkyGE7k6Fw-lOJ-84" vertex="1" connectable="0">
          <mxGeometry x="-0.0273" y="-1" relative="1" as="geometry">
            <mxPoint x="-25" y="-12" as="offset" />
          </mxGeometry>
        </mxCell>
        <mxCell id="rUVFYFhkyGE7k6Fw-lOJ-86" value="1" style="edgeLabel;html=1;align=center;verticalAlign=middle;resizable=0;points=[];" parent="rUVFYFhkyGE7k6Fw-lOJ-84" vertex="1" connectable="0">
          <mxGeometry x="-0.785" relative="1" as="geometry">
            <mxPoint x="-7" y="14" as="offset" />
          </mxGeometry>
        </mxCell>
        <mxCell id="rUVFYFhkyGE7k6Fw-lOJ-87" value="*" style="edgeLabel;html=1;align=center;verticalAlign=middle;resizable=0;points=[];" parent="rUVFYFhkyGE7k6Fw-lOJ-84" vertex="1" connectable="0">
          <mxGeometry x="0.5217" relative="1" as="geometry">
            <mxPoint x="14" y="-25" as="offset" />
          </mxGeometry>
        </mxCell>
        <mxCell id="dWjFg7sWqB5XeoUjc9Y1-47" value="" style="endArrow=none;endFill=0;endSize=24;html=1;rounded=0;exitX=1.001;exitY=0.338;exitDx=0;exitDy=0;exitPerimeter=0;entryX=0.005;entryY=0.694;entryDx=0;entryDy=0;entryPerimeter=0;" edge="1" parent="1" source="rUVFYFhkyGE7k6Fw-lOJ-39" target="rUVFYFhkyGE7k6Fw-lOJ-50">
          <mxGeometry width="160" relative="1" as="geometry">
            <mxPoint x="410" y="1003" as="sourcePoint" />
            <mxPoint x="570" y="1003" as="targetPoint" />
          </mxGeometry>
        </mxCell>
        <mxCell id="dWjFg7sWqB5XeoUjc9Y1-48" value="1..*" style="edgeLabel;html=1;align=center;verticalAlign=middle;resizable=0;points=[];" vertex="1" connectable="0" parent="dWjFg7sWqB5XeoUjc9Y1-47">
          <mxGeometry x="-0.8947" y="-1" relative="1" as="geometry">
            <mxPoint y="16" as="offset" />
          </mxGeometry>
        </mxCell>
        <mxCell id="dWjFg7sWqB5XeoUjc9Y1-49" value="1" style="edgeLabel;html=1;align=center;verticalAlign=middle;resizable=0;points=[];" vertex="1" connectable="0" parent="dWjFg7sWqB5XeoUjc9Y1-47">
          <mxGeometry x="0.7305" relative="1" as="geometry">
            <mxPoint x="19" y="17" as="offset" />
          </mxGeometry>
        </mxCell>
        <mxCell id="dWjFg7sWqB5XeoUjc9Y1-50" value="ссылается на" style="edgeLabel;html=1;align=center;verticalAlign=middle;resizable=0;points=[];" vertex="1" connectable="0" parent="dWjFg7sWqB5XeoUjc9Y1-47">
          <mxGeometry x="-0.2304" y="1" relative="1" as="geometry">
            <mxPoint x="15" y="-11" as="offset" />
          </mxGeometry>
        </mxCell>
      </root>
    </mxGraphModel>
  </diagram>
</mxfile>
